<?xml version="1.0" encoding="utf-8"?>
<!-- Generator: Adobe Illustrator 16.0.0, SVG Export Plug-In . SVG Version: 6.00 Build 0)  -->
<!DOCTYPE svg PUBLIC "-//W3C//DTD SVG 1.1//EN" "http://www.w3.org/Graphics/SVG/1.1/DTD/svg11.dtd">
<svg version="1.1" id="Capa_1" xmlns="http://www.w3.org/2000/svg" xmlns:xlink="http://www.w3.org/1999/xlink" x="0px" y="0px"
	 width="16px" height="16px" viewBox="0 0 16 16" enable-background="new 0 0 16 16" xml:space="preserve">
<path d="M13.268,7.491c-0.386,0-0.752,0.082-1.085,0.227c-0.001-0.002-0.002-0.004-0.003-0.007c0,0,0.025-1.067,0.709-1.124h1.161
	V5.009l-2.81-1.792l-0.66,0.347l0.982,1.766c-0.283-0.007-0.598-0.004-0.935,0.014L9.594,3.765C9.526,3.661,9.436,3.604,9.376,3.619
	C9.13,3.362,8.74,3.071,8.287,3.149L7.583,3.271L7.578,3.234C7.556,3.105,7.414,3.025,7.261,3.051L5.91,3.283
	C5.756,3.309,5.65,3.434,5.672,3.562l0.084,0.491C5.778,4.18,5.92,4.261,6.074,4.235l1.351-0.232
	c0.153-0.026,0.259-0.15,0.237-0.279L7.655,3.688l0.704-0.121c0,0,0.35-0.056,0.672,0.289C9.015,3.913,9.037,4.004,9.094,4.092
	l0.858,1.31c-0.04,0.004-0.081,0.01-0.122,0.015C8.945,5.44,8.222,5.674,7.652,5.974C7.649,5.975,7.646,5.977,7.642,5.978l0.001,0
	C6.571,6.546,6.049,7.335,6.049,7.335H4.878c-0.703,0-1.327-0.779-1.327-0.779H0v0.779c0.892,0,1.5,0.194,1.804,0.321
	C0.753,8.036,0,9.04,0,10.222c0,1.51,1.223,2.732,2.732,2.732c1.31,0,2.403-0.922,2.669-2.153H10.6
	c0.266,1.231,1.358,2.153,2.668,2.153c1.51,0,2.732-1.223,2.732-2.732C16,8.714,14.777,7.491,13.268,7.491z M2.732,11.823
	c-0.884,0-1.601-0.717-1.601-1.602c0-0.883,0.717-1.6,1.601-1.6c0.187,0,0.365,0.033,0.531,0.092l-0.5,0.853
	c-0.023-0.002-0.046-0.007-0.07-0.007c-0.345,0-0.625,0.279-0.625,0.624s0.28,0.625,0.625,0.625c0.345,0,0.625-0.28,0.625-0.625
	c0-0.184-0.081-0.347-0.207-0.461l0.494-0.842c0.438,0.286,0.728,0.779,0.728,1.34C4.332,11.106,3.616,11.823,2.732,11.823z
	 M13.268,11.823c-0.883,0-1.6-0.717-1.6-1.602c0-0.532,0.262-1.003,0.662-1.294l0.486,0.829c-0.106,0.112-0.173,0.263-0.173,0.429
	c0,0.345,0.28,0.625,0.624,0.625c0.346,0,0.625-0.28,0.625-0.625s-0.279-0.624-0.625-0.624c-0.041,0-0.081,0.005-0.12,0.013
	L12.66,8.742c0.188-0.077,0.393-0.12,0.607-0.12c0.885,0,1.601,0.717,1.601,1.6C14.868,11.106,14.152,11.823,13.268,11.823z"/>
</svg>
