<?xml version="1.0" encoding="utf-8"?>
<!-- Generator: Adobe Illustrator 16.0.0, SVG Export Plug-In . SVG Version: 6.00 Build 0)  -->
<!DOCTYPE svg PUBLIC "-//W3C//DTD SVG 1.1//EN" "http://www.w3.org/Graphics/SVG/1.1/DTD/svg11.dtd">
<svg version="1.1" id="Capa_1" xmlns="http://www.w3.org/2000/svg" xmlns:xlink="http://www.w3.org/1999/xlink" x="0px" y="0px"
	 width="16px" height="16px" viewBox="0 0 16 16" enable-background="new 0 0 16 16" xml:space="preserve">
<path d="M14.242,2.138v0.722c0,0.123-0.027,0.239-0.07,0.346H1.828c-0.043-0.106-0.07-0.223-0.07-0.346V2.138
	c0-0.52,0.422-0.938,0.941-0.938h3.324V0.988C6.023,0.442,6.465,0,7.012,0h1.977c0.547,0,0.988,0.442,0.988,0.988v0.211h3.326
	C13.82,1.199,14.242,1.618,14.242,2.138z M2.695,4.06h10.609l-0.922,10.612l-0.012,0.011C12.273,15.426,11.641,16,10.869,16H5.082
	c-0.77,0-1.402-0.574-1.504-1.317l-0.012-0.011L2.695,4.06z M9.674,13.312c0,0.181,0.146,0.327,0.326,0.327
	c0.182,0,0.328-0.146,0.328-0.327V5.845c0-0.18-0.146-0.326-0.328-0.326c-0.18,0-0.326,0.146-0.326,0.326V13.312z M7.674,13.312
	c0,0.181,0.146,0.327,0.326,0.327c0.182,0,0.328-0.146,0.328-0.327V5.845c0-0.18-0.146-0.326-0.328-0.326
	c-0.18,0-0.326,0.146-0.326,0.326V13.312z M5.674,13.312c0,0.181,0.146,0.327,0.326,0.327c0.182,0,0.328-0.146,0.328-0.327V5.845
	c0-0.18-0.146-0.326-0.328-0.326c-0.18,0-0.326,0.146-0.326,0.326V13.312z"/>
</svg>
