<?xml version="1.0" encoding="utf-8"?>
<!-- Generator: Adobe Illustrator 16.0.0, SVG Export Plug-In . SVG Version: 6.00 Build 0)  -->
<!DOCTYPE svg PUBLIC "-//W3C//DTD SVG 1.1//EN" "http://www.w3.org/Graphics/SVG/1.1/DTD/svg11.dtd">
<svg version="1.1" id="Capa_1" xmlns="http://www.w3.org/2000/svg" xmlns:xlink="http://www.w3.org/1999/xlink" x="0px" y="0px"
	 width="16px" height="16px" viewBox="0 0 16 16" enable-background="new 0 0 16 16" xml:space="preserve">
<path d="M0,2.677v10.646h16V2.677H0z M1,3.593h2.133c0,2-2.133,2.057-2.133,2.057V3.593z M1,12.171v-2.057
	c0,0,2.133,0.057,2.133,2.057H1z M8,11.739c-1.844,0-3.339-1.68-3.339-3.75c0-2.072,1.495-3.75,3.339-3.75s3.338,1.678,3.338,3.75
	C11.338,10.06,9.844,11.739,8,11.739z M14.907,12.171h-2.132c0-2,2.132-2.057,2.132-2.057V12.171z M14.907,5.649
	c0,0-2.134-0.057-2.134-2.057h2.134V5.649z M9.586,9.058c0,0.68-0.405,1.117-1.174,1.232v0.365H7.525V10.29
	c-0.779-0.115-1.174-0.553-1.174-1.232V8.712h1.025v0.395c0,0.359,0.217,0.488,0.562,0.488c0.346,0,0.562-0.129,0.562-0.488
	c0-1.033-2.119-1.082-2.119-2.516c0-0.676,0.385-1.105,1.145-1.227V4.991h0.887v0.373c0.769,0.115,1.163,0.545,1.163,1.227v0.156
	H8.55V6.54c0-0.359-0.196-0.494-0.542-0.494c-0.345,0-0.542,0.135-0.542,0.494C7.466,7.573,9.586,7.622,9.586,9.058z"/>
</svg>
