<?xml version="1.0" encoding="utf-8"?>
<!-- Generator: Adobe Illustrator 16.0.0, SVG Export Plug-In . SVG Version: 6.00 Build 0)  -->
<!DOCTYPE svg PUBLIC "-//W3C//DTD SVG 1.1//EN" "http://www.w3.org/Graphics/SVG/1.1/DTD/svg11.dtd">
<svg version="1.1" id="Capa_1" xmlns="http://www.w3.org/2000/svg" xmlns:xlink="http://www.w3.org/1999/xlink" x="0px" y="0px"
	 width="16px" height="16px" viewBox="0 0 16 16" enable-background="new 0 0 16 16" xml:space="preserve">
<path d="M8.002,0.005V0c0,0.001-0.001,0.002-0.002,0.003C7.999,0.002,7.999,0.001,7.998,0v0.005c-2.413,2.439-6.493,2.31-6.493,2.31
	v8.033c0.624,4.088,6.323,5.6,6.493,5.65V16c0,0,0.001-0.001,0.002-0.001C8.002,15.999,8.002,16,8.002,16v-0.002
	c0.171-0.051,5.869-1.562,6.492-5.65V2.314C14.494,2.314,10.415,2.444,8.002,0.005z M12.111,6.382l-3.984,3.985l-0.749,0.748
	c-0.099,0.1-0.236,0.154-0.374,0.154s-0.275-0.055-0.374-0.154l-0.749-0.748L3.889,8.375C3.79,8.275,3.734,8.138,3.734,8
	S3.79,7.725,3.889,7.626l0.749-0.749c0.099-0.099,0.236-0.154,0.374-0.154s0.275,0.055,0.374,0.154l1.618,1.624l3.609-3.616
	c0.1-0.099,0.237-0.154,0.375-0.154c0.137,0,0.275,0.055,0.374,0.154l0.749,0.749c0.099,0.099,0.154,0.236,0.154,0.374
	S12.21,6.283,12.111,6.382z"/>
</svg>
