<?xml version="1.0" encoding="utf-8"?>
<!-- Generator: Adobe Illustrator 16.0.0, SVG Export Plug-In . SVG Version: 6.00 Build 0)  -->
<!DOCTYPE svg PUBLIC "-//W3C//DTD SVG 1.1//EN" "http://www.w3.org/Graphics/SVG/1.1/DTD/svg11.dtd">
<svg version="1.1" id="Capa_1" xmlns="http://www.w3.org/2000/svg" xmlns:xlink="http://www.w3.org/1999/xlink" x="0px" y="0px"
	 width="16px" height="16px" viewBox="0 0 16 16" enable-background="new 0 0 16 16" xml:space="preserve">
<path d="M15.511,6.744l-1.304-1.303V3.598c0-0.98-0.795-1.775-1.775-1.775H10.59L9.286,0.52c-0.693-0.693-1.818-0.693-2.511,0
	L5.472,1.823H3.629c-0.981,0-1.775,0.795-1.775,1.775v1.843L0.551,6.744c-0.695,0.694-0.694,1.818,0,2.512l1.303,1.303V12.4
	c0,0.98,0.794,1.777,1.775,1.777h1.843l1.303,1.303c0.693,0.693,1.818,0.693,2.512,0l1.303-1.303h1.842
	c0.98,0,1.775-0.797,1.775-1.777v-1.842l1.304-1.303C16.204,8.562,16.204,7.438,15.511,6.744z M11.898,6.477l-3.749,3.75
	L7.445,10.93c-0.093,0.094-0.223,0.146-0.352,0.146c-0.13,0-0.26-0.053-0.353-0.146l-0.704-0.703L4.163,8.352
	C4.069,8.258,4.017,8.129,4.017,8c0-0.129,0.052-0.259,0.146-0.352l0.704-0.705C4.96,6.85,5.09,6.798,5.219,6.798
	c0.129,0,0.259,0.052,0.353,0.145l1.522,1.528l3.396-3.402c0.093-0.093,0.223-0.145,0.353-0.145c0.129,0,0.259,0.052,0.352,0.145
	l0.704,0.704c0.094,0.094,0.146,0.223,0.146,0.353C12.044,6.254,11.992,6.384,11.898,6.477z"/>
</svg>
